# File created by Blade
# Date/Time:  Mon Sep 22 17:38:34 2014
# Frame Rate: 120.000 fps
#------------------------------------------------------
:FULLY-SPECIFIED
:DEGREES
2807
root 3.158968 38.531346 4.879921 12.321658 23.457282 29.774994
RightUpLeg 6.592792 -13.945957 -22.771143
RightLeg -2.959350 -0.000000 0.000000
RightFoot -15.185238 -29.127643 9.071875
RightToeBase 2.868998 -0.000000 -0.000000
LeftUpLeg 1.483908 25.009996 15.334556
LeftLeg 89.746980 -0.000000 -0.000000
LeftFoot 17.346025 30.884565 -24.370282
LeftToeBase -5.172994 -0.000000 0.000000
Spine 11.601808 2.409170 -6.133356
RightShoulder 2.456254 -17.404096 -21.864238
RightArm 32.788314 6.349091 49.583853
RightForeArm 2.274635 -0.000000 113.401017
RightHand 1.236350 -0.000000 -33.715029
RightHandThumb1 -24.326973 -0.000000 -32.862282
LeftShoulder -30.298693 37.082532 -21.118069
LeftArm 28.332774 -8.701650 -73.316209
LeftForeArm 28.895542 -0.000000 62.826715
LeftHand -30.226170 -0.000000 17.701343
LeftHandThumb1 -26.253704 0.000000 33.147579
Head 14.230275 -8.116177 -24.530306
2808
root 3.153537 38.529368 4.870312 12.330563 23.416858 29.776968
RightUpLeg 6.612741 -13.903648 -22.763948
RightLeg -3.096689 -0.000000 0.000000
RightFoot -15.098262 -29.191338 9.019125
RightToeBase 2.912244 -0.000000 -0.000000
LeftUpLeg 1.373838 25.176901 15.254848
LeftLeg 89.950347 -0.000000 -0.000000
LeftFoot 17.331417 30.775725 -24.489544
LeftToeBase -4.842617 -0.000000 0.000000
Spine 11.603962 2.402660 -6.122965
RightShoulder 2.474082 -17.331140 -21.866567
RightArm 32.855155 6.267621 49.584007
RightForeArm 2.154225 -0.000000 113.448865
RightHand 1.104594 -0.000000 -33.837109
RightHandThumb1 -24.326973 -0.000000 -32.862282
LeftShoulder -30.272735 37.050883 -21.050929
LeftArm 28.360415 -8.621896 -73.305707
LeftForeArm 28.909320 -0.000000 62.867424
LeftHand -30.278907 -0.000000 17.739030
LeftHandThumb1 -26.253704 0.000000 33.147579
Head 14.251513 -7.978891 -24.597441
2809
root 3.155161 38.528427 4.866867 12.311638 23.361206 29.776815
RightUpLeg 6.663263 -13.916877 -22.780042
RightLeg -3.229638 -0.000000 0.000000
RightFoot -15.014606 -29.161081 8.975927
RightToeBase 2.901689 -0.000000 -0.000000
LeftUpLeg 1.343056 25.356899 15.182518
LeftLeg 90.058376 -0.000000 -0.000000
LeftFoot 17.333032 30.718595 -24.624712
LeftToeBase -4.814131 -0.000000 0.000000
Spine 11.602940 2.397689 -6.096248
RightShoulder 2.511844 -17.320339 -21.882466
RightArm 32.968569 6.197478 49.558394
RightForeArm 2.031261 -0.000000 113.480502
RightHand 1.085029 -0.000000 -33.698534
RightHandThumb1 -24.326973 -0.000000 -32.862282
LeftShoulder -30.270476 37.030613 -21.024087
LeftArm 28.372936 -8.549580 -73.277149
LeftForeArm 28.914994 0.000000 62.977627
LeftHand -30.793806 -0.000000 17.385683
LeftHandThumb1 -26.253704 0.000000 33.147579
Head 14.304472 -7.815868 -24.692438
2810
root 3.158083 38.527520 4.863028 12.300285 23.304144 29.779248
RightUpLeg 6.716059 -13.926309 -22.804436
RightLeg -3.377125 -0.000000 0.000000
RightFoot -14.902322 -29.099440 8.890417
RightToeBase 2.763919 -0.000000 -0.000000
LeftUpLeg 1.322681 25.543752 15.085665
LeftLeg 90.110756 -0.000000 -0.000000
LeftFoot 17.384314 30.647149 -24.633028
LeftToeBase -4.989502 -0.000000 0.000000
Spine 11.595697 2.400777 -6.065073
RightShoulder 2.549374 -17.293547 -21.888208
RightArm 33.052370 6.140538 49.529744
RightForeArm 1.973107 -0.000000 113.505868
RightHand 1.049750 -0.000000 -34.011157
RightHandThumb1 -24.326973 -0.000000 -32.862282
LeftShoulder -30.280895 37.029860 -21.018838
LeftArm 28.411913 -8.489365 -73.250607
LeftForeArm 29.034712 -0.000000 63.062226
LeftHand -30.847788 -0.000000 17.183304
LeftHandThumb1 -26.253704 0.000000 33.147579
Head 14.353435 -7.678587 -24.801560
2811
root 3.160017 38.526089 4.859369 12.285977 23.253792 29.768610
RightUpLeg 6.759636 -13.924676 -22.811521
RightLeg -3.504704 -0.000000 0.000000
RightFoot -14.884045 -29.041732 8.957971
RightToeBase 2.829562 -0.000000 -0.000000
LeftUpLeg 1.301397 25.737784 15.002867
LeftLeg 90.127652 -0.000000 -0.000000
LeftFoot 17.386064 30.629699 -24.723163
LeftToeBase -4.794723 -0.000000 0.000000
Spine 11.584970 2.403448 -6.013763
RightShoulder 2.586762 -17.278258 -21.903410
RightArm 33.132504 6.092504 49.519920
RightForeArm 1.843415 0.000000 113.513015
RightHand 1.012308 -0.000000 -34.149256
RightHandThumb1 -24.326973 -0.000000 -32.862282
LeftShoulder -30.266618 36.994473 -20.986635
LeftArm 28.412418 -8.424700 -73.220067
LeftForeArm 29.089871 0.000000 63.133165
LeftHand -30.756155 -0.000000 17.198991
LeftHandThumb1 -26.253704 0.000000 33.147579
Head 14.397630 -7.535991 -24.901148
2812
root 3.162301 38.524574 4.855716 12.276956 23.199551 29.760247
RightUpLeg 6.790129 -13.945821 -22.824659
RightLeg -3.614011 -0.000000 0.000000
RightFoot -14.818121 -28.984010 8.952868
RightToeBase 2.825482 -0.000000 -0.000000
LeftUpLeg 1.286887 25.922138 14.895842
LeftLeg 90.090684 -0.000000 -0.000000
LeftFoot 17.413154 30.591508 -24.768170
LeftToeBase -4.904006 -0.000000 0.000000
Spine 11.567987 2.398639 -5.965497
RightShoulder 2.628350 -17.318564 -21.911817
RightArm 33.247703 6.090566 49.493706
RightForeArm 1.640850 0.000000 113.505068
RightHand 1.061144 0.000000 -33.734821
RightHandThumb1 -24.326973 -0.000000 -32.862282
LeftShoulder -30.273290 36.950022 -20.958148
LeftArm 28.414039 -8.353856 -73.183428
LeftForeArm 29.074091 -0.000000 63.221184
LeftHand -30.780453 -0.000000 17.260619
LeftHandThumb1 -26.253704 0.000000 33.147579
Head 14.424914 -7.376119 -24.982299
2813
root 3.164683 38.522755 4.851872 12.263481 23.143847 29.746337
RightUpLeg 6.813052 -13.967853 -22.833318
RightLeg -3.708421 -0.000000 0.000000
RightFoot -14.785149 -28.905496 8.977064
RightToeBase 2.820684 -0.000000 -0.000000
LeftUpLeg 1.284715 26.107744 14.778746
LeftLeg 90.011754 -0.000000 -0.000000
LeftFoot 17.366927 30.582215 -24.844140
LeftToeBase -4.713961 -0.000000 0.000000
Spine 11.557038 2.417394 -5.904634
RightShoulder 2.647902 -17.281660 -21.917137
RightArm 33.301257 6.040889 49.474744
RightForeArm 1.539280 -0.000000 113.496233
RightHand 1.075579 -0.000000 -33.703989
RightHandThumb1 -24.326973 -0.000000 -32.862282
LeftShoulder -30.277087 36.986394 -20.976894
LeftArm 28.493137 -8.341658 -73.164747
LeftForeArm 29.134365 -0.000000 63.339298
LeftHand -30.926120 -0.000000 17.164673
LeftHandThumb1 -26.253704 0.000000 33.147579
Head 14.443154 -7.243656 -25.059449
2814
root 3.166707 38.519918 4.847695 12.258860 23.096338 29.723972
RightUpLeg 6.820235 -13.953422 -22.827004
RightLeg -3.788069 -0.000000 0.000000
RightFoot -14.737669 -28.884120 8.957477
RightToeBase 2.820881 -0.000000 -0.000000
LeftUpLeg 1.271685 26.278864 14.662498
LeftLeg 89.898673 -0.000000 -0.000000
LeftFoot 17.345995 30.598895 -24.988995
LeftToeBase -4.683396 -0.000000 0.000000
Spine 11.525646 2.421427 -5.833148
RightShoulder 2.696235 -17.233508 -21.922429
RightArm 33.309816 6.026041 49.458718
RightForeArm 1.476803 -0.000000 113.497499
RightHand 1.106977 0.000000 -33.724260
RightHandThumb1 -24.326973 -0.000000 -32.862282
LeftShoulder -30.284217 37.007957 -20.973415
LeftArm 28.542610 -8.313948 -73.155223
LeftForeArm 29.127518 -0.000000 63.427338
LeftHand -30.719235 0.000000 17.158793
LeftHandThumb1 -26.253704 0.000000 33.147579
Head 14.458849 -7.116917 -25.135127
2815
root 3.168999 38.516681 4.845079 12.240996 23.052954 29.692698
RightUpLeg 6.834767 -13.928118 -22.811944
RightLeg -3.853236 -0.000000 0.000000
RightFoot -14.694317 -28.864161 8.958774
RightToeBase 2.766526 -0.000000 -0.000000
LeftUpLeg 1.286231 26.445965 14.551915
LeftLeg 89.729894 -0.000000 -0.000000
LeftFoot 17.385599 30.606116 -24.948219
LeftToeBase -4.866156 -0.000000 0.000000
Spine 11.508974 2.431108 -5.748092
RightShoulder 2.732837 -17.196907 -21.931440
RightArm 33.330752 6.037311 49.466325
RightForeArm 1.540294 -0.000000 113.501263
RightHand 1.119400 0.000000 -34.111909
RightHandThumb1 -24.326973 -0.000000 -32.862282
LeftShoulder -30.289415 36.992860 -20.966528
LeftArm 28.573762 -8.280501 -73.120966
LeftForeArm 29.166470 -0.000000 63.561038
LeftHand -30.886584 -0.000000 16.960223
LeftHandThumb1 -26.253704 0.000000 33.147579
Head 14.464666 -7.015519 -25.211883
